<?xml version="1.0" encoding="UTF-8"?>
<svg xmlns="http://www.w3.org/2000/svg" xmlns:xlink="http://www.w3.org/1999/xlink" width="611.999983" height="791.999983" viewBox="0 0 611.999983 791.999983">
<defs>
<clipPath id="clip-0">
<path clip-rule="nonzero" d="M 26.242188 270 L 117 270 L 117 300 L 26.242188 300 Z M 26.242188 270 "/>
</clipPath>
<clipPath id="clip-1">
<path clip-rule="nonzero" d="M 495 270 L 585.757812 270 L 585.757812 300 L 495 300 Z M 495 270 "/>
</clipPath>
<clipPath id="clip-2">
<path clip-rule="nonzero" d="M 26.242188 172 L 585.757812 172 L 585.757812 792 L 26.242188 792 Z M 26.242188 172 "/>
</clipPath>
</defs>
<path fill-rule="nonzero" fill="rgb(99.198914%, 72.499084%, 81.599426%)" fill-opacity="1" d="M 306.289062 211.335938 L 236.703125 252.59375 L 375.519531 252.59375 Z M 306.289062 211.335938 "/>
<path fill-rule="nonzero" fill="rgb(29.399109%, 8.599854%, 29.798889%)" fill-opacity="1" d="M 307.226562 727.5625 C 217.996094 727.5625 145.398438 653.59375 145.398438 562.667969 C 145.398438 471.753906 217.996094 397.789062 307.226562 397.789062 C 396.460938 397.789062 469.058594 471.753906 469.058594 562.667969 C 469.058594 653.59375 396.460938 727.5625 307.226562 727.5625 M 307.226562 361.46875 C 198.339844 361.46875 109.753906 451.726562 109.753906 562.667969 C 109.753906 673.621094 198.339844 763.882812 307.226562 763.882812 C 416.117188 763.882812 504.703125 673.621094 504.703125 562.667969 C 504.703125 451.726562 416.117188 361.46875 307.226562 361.46875 "/>
<path fill-rule="nonzero" fill="rgb(86.698914%, 53.29895%, 81.199646%)" fill-opacity="1" d="M 233.050781 280.710938 L 381.40625 280.710938 L 307.226562 330.195312 Z M 222.519531 209.117188 L 256.390625 209.117188 L 213.164062 234.746094 Z M 391.9375 209.117188 L 401.25 234.621094 L 358.457031 209.117188 Z M 307.515625 211.335938 L 376.75 252.59375 L 237.929688 252.59375 Z M 307.226562 763.882812 C 198.339844 763.882812 109.753906 673.621094 109.753906 562.667969 C 109.753906 451.726562 198.339844 361.46875 307.226562 361.46875 C 416.117188 361.46875 504.703125 451.726562 504.703125 562.667969 C 504.703125 673.621094 416.117188 763.882812 307.226562 763.882812 M 347.394531 337.011719 L 435.230469 278.417969 C 440.617188 274.820312 442.847656 267.902344 440.601562 261.75 L 414.457031 190.15625 C 412.445312 184.648438 407.292969 181 401.527344 181 L 212.929688 181 C 207.164062 181 202.011719 184.648438 200 190.15625 L 173.855469 261.75 C 171.609375 267.902344 173.835938 274.820312 179.226562 278.417969 L 267.0625 337.011719 C 162.054688 356.363281 82.15625 450.1875 82.15625 562.667969 C 82.15625 689.125 183.121094 792 307.226562 792 C 431.332031 792 532.300781 689.125 532.300781 562.667969 C 532.300781 450.1875 452.402344 356.363281 347.394531 337.011719 "/>
<path fill-rule="nonzero" fill="rgb(100%, 67.098999%, 96.099854%)" fill-opacity="1" d="M 304.980469 92.398438 C 312.601562 92.398438 318.777344 86.105469 318.777344 78.339844 L 318.777344 14.058594 C 318.777344 6.292969 312.601562 0 304.980469 0 C 297.359375 0 291.179688 6.292969 291.179688 14.058594 L 291.179688 78.339844 C 291.179688 86.105469 297.359375 92.398438 304.980469 92.398438 "/>
<g clip-path="url(#clip-0)">
<path fill-rule="nonzero" fill="rgb(100%, 67.098999%, 96.099854%)" fill-opacity="1" d="M 116.929688 285.042969 C 116.929688 277.277344 110.753906 270.984375 103.128906 270.984375 L 40.042969 270.984375 C 32.421875 270.984375 26.242188 277.277344 26.242188 285.042969 C 26.242188 292.804688 32.421875 299.101562 40.042969 299.101562 L 103.128906 299.101562 C 110.753906 299.101562 116.929688 292.804688 116.929688 285.042969 "/>
</g>
<g clip-path="url(#clip-1)">
<path fill-rule="nonzero" fill="rgb(100%, 67.098999%, 96.099854%)" fill-opacity="1" d="M 571.957031 270.984375 L 508.867188 270.984375 C 501.246094 270.984375 495.070312 277.277344 495.070312 285.042969 C 495.070312 292.804688 501.246094 299.101562 508.867188 299.101562 L 571.957031 299.101562 C 579.578125 299.101562 585.757812 292.804688 585.757812 285.042969 C 585.757812 277.277344 579.578125 270.984375 571.957031 270.984375 "/>
</g>
<path fill-rule="nonzero" fill="rgb(100%, 67.098999%, 96.099854%)" fill-opacity="1" d="M 151.765625 151.132812 C 154.460938 153.878906 157.992188 155.253906 161.523438 155.253906 C 165.054688 155.253906 168.589844 153.878906 171.28125 151.132812 C 176.671875 145.644531 176.671875 136.742188 171.28125 131.253906 L 126.675781 85.796875 C 121.289062 80.308594 112.550781 80.308594 107.160156 85.796875 C 101.773438 91.289062 101.773438 100.191406 107.160156 105.679688 Z M 151.765625 151.132812 "/>
<path fill-rule="nonzero" fill="rgb(100%, 67.098999%, 96.099854%)" fill-opacity="1" d="M 448.429688 155.253906 C 451.960938 155.253906 455.492188 153.878906 458.1875 151.132812 L 502.792969 105.679688 C 508.183594 100.191406 508.183594 91.289062 502.792969 85.796875 C 497.40625 80.308594 488.667969 80.308594 483.28125 85.796875 L 438.671875 131.253906 C 433.28125 136.742188 433.28125 145.644531 438.671875 151.132812 C 441.367188 153.878906 444.898438 155.253906 448.429688 155.253906 "/>
<g clip-path="url(#clip-2)">
<path fill="none" stroke-width="21" stroke-linecap="butt" stroke-linejoin="miter" stroke="rgb(86.698914%, 53.29895%, 81.199646%)" stroke-opacity="1" stroke-miterlimit="10" d="M -0.00169234 0.000889583 C -0.00169234 -92.996926 -75.390344 -168.390236 -168.388159 -168.390236 C -261.390633 -168.390236 -336.779285 -92.996926 -336.779285 0.000889583 C -336.779285 92.998705 -261.390633 168.392015 -168.388159 168.392015 C -75.390344 168.392015 -0.00169234 92.998705 -0.00169234 0.000889583 Z M -0.00169234 0.000889583 " transform="matrix(0.838519, 0, 0, -0.838519, 448.4272, 562.574965)"/>
</g>
</svg>
